ibm2401
version=1
nRows=38
nColumns=19
inDegrees=yes
endheader
time	ground_force1_vx	ground_force1_vy	ground_force1_vz	ground_force1_px	ground_force1_py	ground_force1_pz	ground_torque1_x	ground_torque1_y	ground_torque1_z	ground_force2_vx	ground_force2_vy	ground_force2_vz	ground_force2_px	ground_force2_py	ground_force2_pz	ground_torque2_x	ground_torque2_y	ground_torque2_z
2.625000	101.458130	722.113037	5.577700	0.226425	0.000000	-0.369038	0.000029	-2.900350	0.000008	-0.000000	-0.000000	0.000000	-0.150000	0.000000	-0.200000	0.000000	0.000000	0.000000	
2.626000	100.237427	723.944092	8.019107	0.226400	0.000000	-0.367596	0.000033	-2.368440	0.000001	-0.000000	-0.000000	0.000000	-0.150000	0.000000	-0.200000	0.000000	0.000000	0.000000	
2.627000	102.373657	722.723389	7.713931	0.226360	0.000000	-0.368641	-0.000009	-2.903487	0.000001	-0.000000	-0.000000	0.000000	-0.150000	0.000000	-0.200000	0.000000	0.000000	0.000000	
2.628000	102.373657	722.113037	6.798403	0.225579	0.000000	-0.367770	-0.000004	-2.647562	0.000013	-0.000000	-0.000000	0.000000	-0.150000	0.000000	-0.200000	0.000000	0.000000	0.000000	
2.629000	102.984009	723.333740	9.239810	0.225452	0.000000	-0.370016	0.000014	-2.799067	0.000009	-0.000000	-0.000000	0.000000	-0.150000	0.000000	-0.200000	0.000000	0.000000	0.000000	
2.630000	101.152954	727.606201	8.324283	0.225512	0.000000	-0.366999	-0.000001	-2.386784	0.000009	-0.000000	-0.000000	0.000000	-0.150000	0.000000	-0.200000	0.000000	0.000000	0.000000	
2.631000	102.373657	729.437256	8.324283	0.225657	0.000000	-0.368083	-0.000005	-2.520979	0.000015	-0.000000	-0.000000	0.000000	-0.150000	0.000000	-0.200000	0.000000	0.000000	0.000000	
2.632000	103.594360	726.995850	9.239810	0.225911	0.000000	-0.368399	0.000034	-3.197939	0.000009	-0.000000	-0.000000	0.000000	-0.150000	0.000000	-0.200000	0.000000	0.000000	0.000000	
2.633000	103.594360	717.230225	9.850162	0.226945	0.000000	-0.370450	0.000028	-2.917630	0.000008	-0.000000	-0.000000	0.000000	-0.150000	0.000000	-0.200000	0.000000	0.000000	0.000000	
2.634000	104.204712	722.723389	8.629458	0.225685	0.000000	-0.369401	0.000009	-3.540497	0.000008	-0.000000	-0.000000	0.000000	-0.150000	0.000000	-0.200000	0.000000	0.000000	0.000000	
2.635000	104.815063	722.113037	11.681216	0.226087	0.000000	-0.369545	0.000014	-3.254397	-0.000003	-0.000000	-0.000000	0.000000	-0.150000	0.000000	-0.200000	0.000000	0.000000	0.000000	
2.636000	103.594360	723.333740	11.070865	0.225452	0.000000	-0.369763	-0.000000	-2.923824	0.000009	-0.000000	-0.000000	0.000000	-0.150000	0.000000	-0.200000	0.000000	0.000000	0.000000	
2.637000	106.035767	722.723389	10.765689	0.225853	0.000000	-0.368387	0.000002	-3.084573	-0.000002	-0.000000	-0.000000	0.000000	-0.150000	0.000000	-0.200000	0.000000	0.000000	0.000000	
2.638000	104.815063	716.009521	11.681216	0.227076	0.000000	-0.371254	0.000033	-3.902906	0.000003	-0.000000	-0.000000	0.000000	-0.150000	0.000000	-0.200000	0.000000	0.000000	0.000000	
2.639000	104.815063	725.164795	12.291568	0.226440	0.000000	-0.368827	0.000024	-3.138398	0.000011	-0.000000	-0.000000	0.000000	-0.150000	0.000000	-0.200000	0.000000	0.000000	0.000000	
2.640000	105.120239	726.385498	11.376040	0.225975	0.000000	-0.368794	0.000017	-3.203008	0.000003	-0.000000	-0.000000	0.000000	-0.150000	0.000000	-0.200000	0.000000	0.000000	0.000000	
2.641000	107.866821	722.723389	12.596744	0.226360	0.000000	-0.369654	-0.000003	-3.493542	0.000001	-0.000000	-0.000000	0.000000	-0.150000	0.000000	-0.200000	0.000000	0.000000	0.000000	
2.642000	106.646118	725.164795	12.596744	0.225598	0.000000	-0.369079	0.000004	-3.672118	0.000008	-0.000000	-0.000000	0.000000	-0.150000	0.000000	-0.200000	0.000000	0.000000	0.000000	
2.643000	106.951294	721.502686	14.122622	0.226151	0.000000	-0.369689	0.000036	-3.546161	0.000003	-0.000000	-0.000000	0.000000	-0.150000	0.000000	-0.200000	0.000000	0.000000	0.000000	
2.644000	106.035767	726.995850	12.901919	0.225408	0.000000	-0.368147	-0.000012	-3.306980	0.000007	-0.000000	-0.000000	0.000000	-0.150000	0.000000	-0.200000	0.000000	0.000000	0.000000	
2.645000	105.730591	725.775146	12.901919	0.225366	0.000000	-0.369189	0.000010	-2.907168	0.000005	-0.000000	-0.000000	0.000000	-0.150000	0.000000	-0.200000	0.000000	0.000000	0.000000	
2.646000	105.120239	720.892334	13.512271	0.226723	0.000000	-0.369579	0.000021	-3.274919	0.000004	-0.000000	-0.000000	0.000000	-0.150000	0.000000	-0.200000	0.000000	0.000000	0.000000	
2.647000	107.561646	717.840576	12.596744	0.226199	0.000000	-0.370050	0.000003	-3.024222	0.000013	-0.000000	-0.000000	0.000000	-0.150000	0.000000	-0.200000	0.000000	0.000000	0.000000	
2.648000	108.171997	725.775146	12.596744	0.225871	0.000000	-0.368684	0.000028	-3.709210	0.000008	-0.000000	-0.000000	0.000000	-0.150000	0.000000	-0.200000	0.000000	0.000000	0.000000	
2.649000	104.815063	725.775146	13.207095	0.225534	0.000000	-0.368684	0.000028	-3.547668	0.000013	-0.000000	-0.000000	0.000000	-0.150000	0.000000	-0.200000	0.000000	0.000000	0.000000	
2.650000	105.120239	723.333740	12.901919	0.225621	0.000000	-0.369004	0.000014	-3.061787	0.000005	-0.000000	-0.000000	0.000000	-0.150000	0.000000	-0.200000	0.000000	0.000000	0.000000	
2.651000	106.646118	723.944092	14.122622	0.225894	0.000000	-0.368607	0.000025	-3.466659	0.000005	-0.000000	-0.000000	0.000000	-0.150000	0.000000	-0.200000	0.000000	0.000000	0.000000	
2.652000	104.815063	723.333740	15.038150	0.225789	0.000000	-0.368751	0.000000	-3.055899	0.000012	-0.000000	-0.000000	0.000000	-0.150000	0.000000	-0.200000	0.000000	0.000000	0.000000	
2.653000	108.171997	717.230225	13.512271	0.226434	0.000000	-0.369685	-0.000010	-3.711389	0.000009	-0.000000	-0.000000	0.000000	-0.150000	0.000000	-0.200000	0.000000	0.000000	0.000000	
2.654000	105.425415	717.230225	14.122622	0.226775	0.000000	-0.369429	0.000031	-3.541801	0.000015	-0.000000	-0.000000	0.000000	-0.150000	0.000000	-0.200000	0.000000	0.000000	0.000000	
2.655000	106.035767	719.671631	15.343326	0.225327	0.000000	-0.369106	0.000010	-3.499890	0.000008	-0.000000	-0.000000	0.000000	-0.150000	0.000000	-0.200000	0.000000	0.000000	0.000000	
2.656000	104.815063	721.502686	15.343326	0.226489	0.000000	-0.368420	0.000024	-3.238230	0.000012	-0.000000	-0.000000	0.000000	-0.150000	0.000000	-0.200000	0.000000	0.000000	0.000000	
2.657000	105.120239	720.281982	15.343326	0.225772	0.000000	-0.368199	0.000017	-3.438762	0.000004	-0.000000	-0.000000	0.000000	-0.150000	0.000000	-0.200000	0.000000	0.000000	0.000000	
2.658000	102.678833	713.568115	15.648501	0.226313	0.000000	-0.369278	0.000015	-3.351153	0.000012	-0.000000	-0.000000	0.000000	-0.150000	0.000000	-0.200000	0.000000	0.000000	0.000000	
2.659000	106.035767	717.840576	14.427798	0.225689	0.000000	-0.369029	0.000003	-3.794277	0.000003	-0.000000	-0.000000	0.000000	-0.150000	0.000000	-0.200000	0.000000	0.000000	0.000000	
2.660000	103.899536	713.568115	15.038150	0.226142	0.000000	-0.369791	0.000025	-3.471632	0.000005	-0.000000	-0.000000	0.000000	-0.150000	0.000000	-0.200000	0.000000	0.000000	0.000000	
2.661000	102.678833	714.178467	15.038150	0.226077	0.000000	-0.368876	-0.000003	-3.351306	0.000015	-0.000000	-0.000000	0.000000	-0.150000	0.000000	-0.200000	0.000000	0.000000	0.000000	
2.662000	102.678833	717.230225	15.343326	0.224903	0.000000	-0.367642	-0.000004	-3.229855	0.000014	-0.000000	-0.000000	0.000000	-0.150000	0.000000	-0.200000	0.000000	0.000000	0.000000	
